<?xml version="1.0" encoding="UTF-8"?>
<svg width="306px" height="392px" viewBox="0 0 306 392" version="1.1" xmlns="http://www.w3.org/2000/svg" xmlns:xlink="http://www.w3.org/1999/xlink">
    <!-- Generator: Sketch 48.1 (47250) - http://www.bohemiancoding.com/sketch -->
    <title>face</title>
    <desc>Created with Sketch.</desc>
    <defs></defs>
    <g id="Page-1" stroke="none" stroke-width="1" fill="none" fill-rule="evenodd">
        <g id="full-face">
            <g id="face">
                <path d="M209.34968,391.71345 C209.34968,333.949633 162.485158,287.122807 104.67484,287.122807 C46.8645222,287.122807 0,333.949633 0,391.71345 C31.3038713,391.71345 153.039904,391.71345 209.34968,391.71345 Z" id="arms" fill="#000000"></path>
                <ellipse id="ear-right" stroke="#000000" stroke-width="6" fill="#FFFFFF" transform="translate(60.662896, 133.891640) rotate(-10.000000) translate(-60.662896, -133.891640) " cx="60.6628965" cy="133.89164" rx="17.737973" ry="52.2953216"></ellipse>
                <path d="M218.400047,201.839368 C228.196459,201.839368 233.899525,176.813843 233.899525,147.931934 C233.899525,119.050026 222.676167,97.3471476 212.879755,97.3471476 C203.083343,97.3471476 195.141782,120.760561 195.141782,149.642469 C195.141782,178.524378 208.603635,201.839368 218.400047,201.839368 Z" id="ear-left" stroke="#000000" stroke-width="6" fill="#FFFFFF" transform="translate(214.520654, 149.593258) rotate(24.000000) translate(-214.520654, -149.593258) "></path>
                <polygon id="head" stroke="#000000" stroke-width="6" fill="#FFFFFF" points="46.7676073 32.3577303 116.92574 316.375503 242.501941 61.9171235 194.040537 38.1446912"></polygon>
                <path d="M71.2301981,76.6442114 C85.549053,63.834544 97.5807597,61.2287326 107.325318,68.8267772" id="eyebrow-left" stroke="#000000" stroke-width="6" stroke-linecap="round"></path>
                <path d="M174.885624,81.8614309 C195.704087,74.6312744 209.732801,77.2796205 216.971765,89.8064693" id="eyebrow-right" stroke="#000000" stroke-width="6" stroke-linecap="round"></path>
                <path d="M124.063883,170.553043 C127.095241,188.405687 128.995908,198.168525 129.765883,199.841557 C130.535859,201.514589 134.969379,192.541255 143.066444,172.921555" id="nose" stroke="#000000" stroke-width="6" stroke-linecap="round"></path>
                <g id="mouth" transform="translate(110.123667, 220.070175)" stroke="#000000" stroke-linecap="round" stroke-width="6">
                    <path d="M2.92157516,6.36006031 C13.4697162,19.4741868 23.4009806,21.0681195 32.7153685,11.1418586" id="Path-5"></path>
                    <path d="M0.053771322,11.3522935 L7.14934535,0.344755117" id="Path-6"></path>
                </g>
                <g id="eyes" transform="translate(49.899787, 80.233918)">
                    <g id="whites" fill="#FFFFFF" stroke="#000000" stroke-width="6">
                        <ellipse id="eye-left" cx="45.0245203" cy="44.9883041" rx="45.0245203" ry="44.9883041"></ellipse>
                        <ellipse id="eye-right" cx="133.926439" cy="54.7309942" rx="45.0245203" ry="44.9883041"></ellipse>
                    </g>
                    <g id="pupils" transform="translate(51.620469, 28.654971)" fill="#000000">
                        <ellipse id="pupil-left" cx="11.184435" cy="11.1754386" rx="11.184435" ry="11.1754386"></ellipse>
                        <ellipse id="pupil-right" cx="97.2185501" cy="22.6374269" rx="11.184435" ry="11.1754386"></ellipse>
                    </g>
                </g>
                <polygon id="hair" fill="#000000" points="34.1201443 0.554070724 64.3205832 93.9457694 65.8385028 47.24992 144.623572 68.9532621 226.487049 63.4450155 223.07257 107.13713 242.364152 68.9532621 268.874534 29.5627513 243.982892 37.4742096 240.799182 20.4356954 223.07257 33.0741045 209.575968 12.1973913 199.561059 25.3764391 190.464744 15.2587719 173.908778 23.2631351 144.623572 2.95504386 131.168419 20.4356954 119.861878 8.0424205 111.093792 19.1988304 90.8914579 2.95504386 79.7619145 19.1988304 67.1962287 2.95504386 62.7735374 17.5343796"></polygon>
            </g>
            <g id="hand" transform="translate(187.000000, 174.000000)" fill="#FFFFFF" stroke="#000000" stroke-width="6">
                <path d="M0.408482143,214.86874 C13.438244,225.239738 24.2715774,228.299037 32.9084821,224.046638 C34.7425595,212.507496 40.687872,179.979394 50.7444196,126.462332 L50.7444196,123.563578 C78.281622,110.518813 94.3232887,100.64882 98.8694196,93.9535997 C103.415551,87.2583795 102.118676,79.3234968 94.9787946,70.1489517 L73.9229911,49.8576741 L100.263393,14.1216475 C101.337918,9.55031136 101.726682,6.56141368 101.429688,5.15495451 C100.854314,2.43019826 97.8584316,1.52949008 97.0770089,0.84258307 C94.3100557,-1.58969793 88.7216974,1.74221751 85.2890625,5.15495451 C79.2764137,11.1327499 70.0416667,22.526991 57.5848214,39.337678 C52.0044643,42.2066324 48.4014137,44.4170161 46.7756696,45.9688291 C44.3370536,48.2965487 25.8136161,74.5976563 25.4073661,86.8329905 C25.1365327,94.98988 25.2719494,99.8349189 25.8136161,101.368107 L25.8136161,121.206804 L0.408482143,214.86874 Z" id="Path-2"></path>
                <path d="M72.7131696,47.9554366 L62.9073661,62.6718651 C59.7287946,66.1599057 59.7287946,69.0027855 62.9073661,71.2005044 C66.0859375,73.3982232 68.1006324,74.3643814 68.9514509,74.0989789 C69.7635789,75.8148759 78.8489583,67.7519482 96.2075893,49.9101958 C100.857887,44.6326905 100.857887,39.866993 96.2075893,35.6131032 C94.3963914,34.0065335 92.3189174,33.0417722 89.9751674,32.7188192 C87.6314174,32.3958663 81.8774182,37.4747388 72.7131696,47.9554366 Z" id="Path-4"></path>
                <path d="M84.665047,61.3214434 L74.7408092,74.2148032 C72.3545242,77.5651504 72.6339823,80.2273828 75.5791837,82.2015003 C78.524385,84.1756179 80.8297575,85.5726235 82.4953011,86.3925174 C85.514386,86.794296 93.9327187,79.5517105 107.750299,64.664761 C112.059173,59.9242022 112.059173,55.6433786 107.750299,51.8222901 C105.194887,49.3208831 102.831345,47.9251322 100.659672,47.6350373 C98.4879999,47.3449424 93.1564582,51.9070778 84.665047,61.3214434 Z" id="Path-4" transform="translate(92.060336, 67.015192) rotate(6.000000) translate(-92.060336, -67.015192) "></path>
                <path d="M84.4497768,92.8037085 C86.2287946,96.3044139 89.3824405,96.7473101 93.9107143,94.1323972 C100.703125,90.2100277 115.356027,81.8847706 115.43192,77.650623 C115.507813,73.4164755 115.824777,72.9091377 113.795759,69.6807259 C112.44308,67.5284513 108.927827,68.1326378 103.25,71.4932852 C96.2653639,75.6729712 89.9986228,80.2334241 84.4497768,85.174644 C82.7049655,86.7283898 83.1138393,88.0093289 83.1138393,89.4244363 C83.1138393,90.3678413 83.5591518,91.4942653 84.4497768,92.8037085 Z" id="Path-7"></path>
                <path d="M36.3604911,61.1900811 C40.7935268,53.5651141 44.2410714,48.4019647 46.703125,45.7006329 C51.8459821,40.8362243 63.6283482,34.4274525 80.6908482,40.8362243 C87.312872,46.7597718 85.937872,51.7128341 76.5658482,55.6954114 C71.1171875,54.878903 67.3556548,54.878903 65.28125,55.6954114 C62.4623778,56.7644713 59.4240594,60.4719113 56.1662946,66.8177314" id="Path-3" stroke-linecap="round"></path>
            </g>
        </g>
    </g>
</svg>