<?xml version="1.0" encoding="UTF-8"?>
<svg width="681px" height="532px" viewBox="0 0 681 532" version="1.1" xmlns="http://www.w3.org/2000/svg" xmlns:xlink="http://www.w3.org/1999/xlink">
    <!-- Generator: Sketch 48.1 (47250) - http://www.bohemiancoding.com/sketch -->
    <title>face</title>
    <desc>Created with Sketch.</desc>
    <defs></defs>
    <g id="Page-1" stroke="none" stroke-width="1" fill="none" fill-rule="evenodd">
        <g id="full-face" transform="translate(529.500000, 342.000000) scale(-1, 1) translate(-529.500000, -342.000000) translate(378.000000, 142.000000)">
            <g id="face">
                <path d="M209.34968,391.71345 C209.34968,333.949633 162.485158,287.122807 104.67484,287.122807 C46.8645222,287.122807 0,333.949633 0,391.71345 C31.3038713,391.71345 153.039904,391.71345 209.34968,391.71345 Z" id="arms" fill="#000000"></path>
                <ellipse id="ear-right" stroke="#000000" stroke-width="6" fill="#FFFFFF" transform="translate(60.662896, 133.891640) rotate(-10.000000) translate(-60.662896, -133.891640) " cx="60.6628965" cy="133.89164" rx="17.737973" ry="52.2953216"></ellipse>
                <path d="M218.400047,201.839368 C228.196459,201.839368 233.899525,176.813843 233.899525,147.931934 C233.899525,119.050026 222.676167,97.3471476 212.879755,97.3471476 C203.083343,97.3471476 195.141782,120.760561 195.141782,149.642469 C195.141782,178.524378 208.603635,201.839368 218.400047,201.839368 Z" id="ear-left" stroke="#000000" stroke-width="6" fill="#FFFFFF" transform="translate(214.520654, 149.593258) rotate(24.000000) translate(-214.520654, -149.593258) "></path>
                <polygon id="head" stroke="#000000" stroke-width="6" fill="#FFFFFF" points="46.7676073 32.3577303 116.92574 316.375503 242.501941 61.9171235 194.040537 38.1446912"></polygon>
                <path d="M71.2301981,76.6442114 C85.549053,63.834544 97.5807597,61.2287326 107.325318,68.8267772" id="eyebrow-left" stroke="#000000" stroke-width="6" stroke-linecap="round"></path>
                <path d="M174.885624,81.8614309 C195.704087,74.6312744 209.732801,77.2796205 216.971765,89.8064693" id="eyebrow-right" stroke="#000000" stroke-width="6" stroke-linecap="round"></path>
                <path d="M124.063883,170.553043 C127.095241,188.405687 128.995908,198.168525 129.765883,199.841557 C130.535859,201.514589 134.969379,192.541255 143.066444,172.921555" id="nose" stroke="#000000" stroke-width="6" stroke-linecap="round"></path>
                <g id="mouth" transform="translate(110.123667, 220.070175)" stroke="#000000" stroke-linecap="round" stroke-width="6">
                    <path d="M2.92157516,6.36006031 C13.4697162,19.4741868 23.4009806,21.0681195 32.7153685,11.1418586" id="Path-5"></path>
                    <path d="M0.053771322,11.3522935 L7.14934535,0.344755117" id="Path-6"></path>
                </g>
                <g id="eyes" transform="translate(49.899787, 80.233918)">
                    <g id="whites" fill="#FFFFFF" stroke="#000000" stroke-width="6">
                        <ellipse id="eye-left" cx="45.0245203" cy="44.9883041" rx="45.0245203" ry="44.9883041"></ellipse>
                        <ellipse id="eye-right" cx="133.926439" cy="54.7309942" rx="45.0245203" ry="44.9883041"></ellipse>
                    </g>
                    <g id="pupils" transform="translate(51.620469, 28.654971)" fill="#000000">
                        <ellipse id="pupil-left" cx="11.184435" cy="11.1754386" rx="11.184435" ry="11.1754386"></ellipse>
                        <ellipse id="pupil-right" cx="97.2185501" cy="22.6374269" rx="11.184435" ry="11.1754386"></ellipse>
                    </g>
                </g>
                <polygon id="hair" fill="#000000" points="34.1201443 0.554070724 64.3205832 93.9457694 65.8385028 47.24992 144.623572 68.9532621 226.487049 63.4450155 223.07257 107.13713 242.364152 68.9532621 268.874534 29.5627513 243.982892 37.4742096 240.799182 20.4356954 223.07257 33.0741045 209.575968 12.1973913 199.561059 25.3764391 190.464744 15.2587719 173.908778 23.2631351 144.623572 2.95504386 131.168419 20.4356954 119.861878 8.0424205 111.093792 19.1988304 90.8914579 2.95504386 79.7619145 19.1988304 67.1962287 2.95504386 62.7735374 17.5343796"></polygon>
            </g>
            <g id="hand" transform="translate(187.000000, 174.000000)" fill="#FFFFFF" stroke="#000000" stroke-width="6">
                <path d="M0.408482143,214.86874 C13.438244,225.239738 24.2715774,228.299037 32.9084821,224.046638 C34.7425595,212.507496 40.687872,179.979394 50.7444196,126.462332 L50.7444196,123.563578 C78.281622,110.518813 94.3232887,100.64882 98.8694196,93.9535997 C103.415551,87.2583795 102.118676,79.3234968 94.9787946,70.1489517 L73.9229911,49.8576741 L100.263393,14.1216475 C101.337918,9.55031136 101.726682,6.56141368 101.429688,5.15495451 C100.854314,2.43019826 97.8584316,1.52949008 97.0770089,0.84258307 C94.3100557,-1.58969793 88.7216974,1.74221751 85.2890625,5.15495451 C79.2764137,11.1327499 70.0416667,22.526991 57.5848214,39.337678 C52.0044643,42.2066324 48.4014137,44.4170161 46.7756696,45.9688291 C44.3370536,48.2965487 25.8136161,74.5976563 25.4073661,86.8329905 C25.1365327,94.98988 25.2719494,99.8349189 25.8136161,101.368107 L25.8136161,121.206804 L0.408482143,214.86874 Z" id="Path-2"></path>
                <path d="M72.7131696,47.9554366 L62.9073661,62.6718651 C59.7287946,66.1599057 59.7287946,69.0027855 62.9073661,71.2005044 C66.0859375,73.3982232 68.1006324,74.3643814 68.9514509,74.0989789 C69.7635789,75.8148759 78.8489583,67.7519482 96.2075893,49.9101958 C100.857887,44.6326905 100.857887,39.866993 96.2075893,35.6131032 C94.3963914,34.0065335 92.3189174,33.0417722 89.9751674,32.7188192 C87.6314174,32.3958663 81.8774182,37.4747388 72.7131696,47.9554366 Z" id="Path-4"></path>
                <path d="M84.665047,61.3214434 L74.7408092,74.2148032 C72.3545242,77.5651504 72.6339823,80.2273828 75.5791837,82.2015003 C78.524385,84.1756179 80.8297575,85.5726235 82.4953011,86.3925174 C85.514386,86.794296 93.9327187,79.5517105 107.750299,64.664761 C112.059173,59.9242022 112.059173,55.6433786 107.750299,51.8222901 C105.194887,49.3208831 102.831345,47.9251322 100.659672,47.6350373 C98.4879999,47.3449424 93.1564582,51.9070778 84.665047,61.3214434 Z" id="Path-4" transform="translate(92.060336, 67.015192) rotate(6.000000) translate(-92.060336, -67.015192) "></path>
                <path d="M84.4497768,92.8037085 C86.2287946,96.3044139 89.3824405,96.7473101 93.9107143,94.1323972 C100.703125,90.2100277 115.356027,81.8847706 115.43192,77.650623 C115.507813,73.4164755 115.824777,72.9091377 113.795759,69.6807259 C112.44308,67.5284513 108.927827,68.1326378 103.25,71.4932852 C96.2653639,75.6729712 89.9986228,80.2334241 84.4497768,85.174644 C82.7049655,86.7283898 83.1138393,88.0093289 83.1138393,89.4244363 C83.1138393,90.3678413 83.5591518,91.4942653 84.4497768,92.8037085 Z" id="Path-7"></path>
                <path d="M36.3604911,61.1900811 C40.7935268,53.5651141 44.2410714,48.4019647 46.703125,45.7006329 C51.8459821,40.8362243 63.6283482,34.4274525 80.6908482,40.8362243 C87.312872,46.7597718 85.937872,51.7128341 76.5658482,55.6954114 C71.1171875,54.878903 67.3556548,54.878903 65.28125,55.6954114 C62.4623778,56.7644713 59.4240594,60.4719113 56.1662946,66.8177314" id="Path-3" stroke-linecap="round"></path>
            </g>
        </g>
        <path d="M301.560841,201.255368 L310.089844,224.171875 L269.440558,211.643557 C245.753427,217.659413 219.554565,221 192,221 C85.961328,221 0,171.527465 0,110.5 C0,49.4725351 85.961328,0 192,0 C298.038672,0 384,49.4725351 384,110.5 C384,148.088789 351.388623,181.293954 301.560841,201.255368 Z" id="Combined-Shape" fill="#1ABC9C"></path>
        <path d="M57.64,97.45 L57.64,106 L54.745,106 L54.745,97.45 L46.87,84.505 L49.42,84.505 C49.6800013,84.505 49.8849993,84.5699993 50.035,84.7 C50.1850008,84.8300006 50.3149995,84.989999 50.425,85.18 L55.345,93.535 C55.545001,93.8850018 55.7124993,94.2149984 55.8475,94.525 C55.9825007,94.8350016 56.1049995,95.1399985 56.215,95.44 C56.3250006,95.1299985 56.4449994,94.8200016 56.575,94.51 C56.7050007,94.1999985 56.869999,93.8750017 57.07,93.535 L61.975,85.18 C62.0650005,85.0199992 62.1874992,84.8675007 62.3425,84.7225 C62.4975008,84.5774993 62.6999988,84.505 62.95,84.505 L65.53,84.505 L57.64,97.45 Z M71.56,90.565 C72.6700056,90.565 73.6724955,90.7499982 74.5675,91.12 C75.4625045,91.4900018 76.2224969,92.0149966 76.8475,92.695 C77.4725031,93.3750034 77.9524983,94.1974952 78.2875,95.1625 C78.6225017,96.1275048 78.79,97.204994 78.79,98.395 C78.79,99.595006 78.6225017,100.674995 78.2875,101.635 C77.9524983,102.595005 77.4725031,103.414997 76.8475,104.095 C76.2224969,104.775003 75.4625045,105.297498 74.5675,105.6625 C73.6724955,106.027502 72.6700056,106.21 71.56,106.21 C70.4499945,106.21 69.4475045,106.027502 68.5525,105.6625 C67.6574955,105.297498 66.8950032,104.775003 66.265,104.095 C65.6349969,103.414997 65.1500017,102.595005 64.81,101.635 C64.4699983,100.674995 64.3,99.595006 64.3,98.395 C64.3,97.204994 64.4699983,96.1275048 64.81,95.1625 C65.1500017,94.1974952 65.6349969,93.3750034 66.265,92.695 C66.8950032,92.0149966 67.6574955,91.4900018 68.5525,91.12 C69.4475045,90.7499982 70.4499945,90.565 71.56,90.565 Z M71.56,104.125 C73.0600075,104.125 74.1799963,103.622505 74.92,102.6175 C75.6600037,101.612495 76.03,100.210009 76.03,98.41 C76.03,96.599991 75.6600037,95.190005 74.92,94.18 C74.1799963,93.1699949 73.0600075,92.665 71.56,92.665 C70.7999962,92.665 70.1400028,92.7949987 69.58,93.055 C69.0199972,93.3150013 68.5525019,93.6899975 68.1775,94.18 C67.8024981,94.6700024 67.5225009,95.2724964 67.3375,95.9875 C67.1524991,96.7025036 67.06,97.5099955 67.06,98.41 C67.06,99.3100045 67.1524991,100.114996 67.3375,100.825 C67.5225009,101.535004 67.8024981,102.132498 68.1775,102.6175 C68.5525019,103.102502 69.0199972,103.474999 69.58,103.735 C70.1400028,103.995001 70.7999962,104.125 71.56,104.125 Z M84.4,90.805 L84.4,100.495 C84.4,101.645006 84.6649974,102.534997 85.195,103.165 C85.7250027,103.795003 86.5249947,104.11 87.595,104.11 C88.3750039,104.11 89.1099966,103.925002 89.8,103.555 C90.4900035,103.184998 91.1249971,102.670003 91.705,102.01 L91.705,90.805 L94.375,90.805 L94.375,106 L92.785,106 C92.4049981,106 92.1650005,105.815002 92.065,105.445 L91.855,103.81 C91.1949967,104.540004 90.4550041,105.127498 89.635,105.5725 C88.8149959,106.017502 87.8750053,106.24 86.815,106.24 C85.9849959,106.24 85.2525032,106.102501 84.6175,105.8275 C83.9824968,105.552499 83.4500022,105.165003 83.02,104.665 C82.5899979,104.164998 82.2675011,103.560004 82.0525,102.85 C81.8374989,102.139996 81.73,101.355004 81.73,100.495 L81.73,90.805 L84.4,90.805 Z M100.645,83.38 C100.935001,83.8600024 101.144999,84.3399976 101.275,84.82 C101.405001,85.3000024 101.47,85.7799976 101.47,86.26 C101.47,87.1700045 101.247502,88.0374959 100.8025,88.8625 C100.357498,89.6875041 99.740004,90.4449965 98.95,91.135 L98.125,90.625 C98.0449996,90.5749998 97.9925001,90.5200003 97.9675,90.46 C97.9424999,90.3999997 97.93,90.3400003 97.93,90.28 C97.93,90.1399993 97.9799995,90.0200005 98.08,89.92 C98.2400008,89.7299991 98.3949993,89.5225011 98.545,89.2975 C98.6950008,89.0724989 98.8299994,88.8375012 98.95,88.5925 C99.0700006,88.3474988 99.1649997,88.0900014 99.235,87.82 C99.3050004,87.5499987 99.34,87.2650015 99.34,86.965 C99.34,86.6449984 99.2925005,86.3150017 99.1975,85.975 C99.1024995,85.6349983 98.9400012,85.2750019 98.71,84.895 C98.6399997,84.7849994 98.605,84.6750005 98.605,84.565 C98.605,84.3249988 98.7399987,84.1500006 99.01,84.04 L100.645,83.38 Z M108.1,83.905 L108.1,106 L105.43,106 L105.43,83.905 L108.1,83.905 Z M115.78,83.905 L115.78,106 L113.11,106 L113.11,83.905 L115.78,83.905 Z M129.25,83.905 L129.25,106 L126.58,106 L126.58,83.905 L129.25,83.905 Z M139.975,90.565 C140.885005,90.565 141.724996,90.7174985 142.495,91.0225 C143.265004,91.3275015 143.929997,91.7674971 144.49,92.3425 C145.050003,92.9175029 145.487498,93.6274958 145.8025,94.4725 C146.117502,95.3175042 146.275,96.2799946 146.275,97.36 C146.275,97.7800021 146.23,98.0599993 146.14,98.2 C146.05,98.3400007 145.880001,98.41 145.63,98.41 L135.52,98.41 C135.54,99.3700048 135.669999,100.204996 135.91,100.915 C136.150001,101.625004 136.479998,102.217498 136.9,102.6925 C137.320002,103.167502 137.819997,103.522499 138.4,103.7575 C138.980003,103.992501 139.629996,104.11 140.35,104.11 C141.020003,104.11 141.597498,104.032501 142.0825,103.8775 C142.567502,103.722499 142.984998,103.555001 143.335,103.375 C143.685002,103.194999 143.977499,103.027501 144.2125,102.8725 C144.447501,102.717499 144.649999,102.64 144.82,102.64 C145.040001,102.64 145.209999,102.724999 145.33,102.895 L146.08,103.87 C145.749998,104.270002 145.355002,104.617499 144.895,104.9125 C144.434998,105.207501 143.942503,105.449999 143.4175,105.64 C142.892497,105.830001 142.350003,105.9725 141.79,106.0675 C141.229997,106.1625 140.675003,106.21 140.125,106.21 C139.074995,106.21 138.107504,106.032502 137.2225,105.6775 C136.337496,105.322498 135.572503,104.802503 134.9275,104.1175 C134.282497,103.432497 133.780002,102.585005 133.42,101.575 C133.059998,100.564995 132.88,99.4050065 132.88,98.095 C132.88,97.0349947 133.042498,96.0450046 133.3675,95.125 C133.692502,94.2049954 134.159997,93.4075034 134.77,92.7325 C135.380003,92.0574966 136.124996,91.5275019 137.005,91.1425 C137.885004,90.7574981 138.874995,90.565 139.975,90.565 Z M140.035,92.53 C138.744994,92.53 137.730004,92.9024963 136.99,93.6475 C136.249996,94.3925037 135.790001,95.4249934 135.61,96.745 L143.875,96.745 C143.875,96.1249969 143.790001,95.5575026 143.62,95.0425 C143.449999,94.5274974 143.200002,94.0825019 142.87,93.7075 C142.539998,93.3324981 142.137502,93.042501 141.6625,92.8375 C141.187498,92.632499 140.645003,92.53 140.035,92.53 Z M160.84,106 L159.655,106 C159.394999,106 159.185001,105.96 159.025,105.88 C158.864999,105.8 158.76,105.630001 158.71,105.37 L158.41,103.96 C158.009998,104.320002 157.620002,104.642499 157.24,104.9275 C156.859998,105.212501 156.460002,105.452499 156.04,105.6475 C155.619998,105.842501 155.172502,105.99 154.6975,106.09 C154.222498,106.19 153.695003,106.24 153.115,106.24 C152.524997,106.24 151.972503,106.157501 151.4575,105.9925 C150.942497,105.827499 150.495002,105.580002 150.115,105.25 C149.734998,104.919998 149.432501,104.502503 149.2075,103.9975 C148.982499,103.492497 148.87,102.895003 148.87,102.205 C148.87,101.604997 149.034998,101.027503 149.365,100.4725 C149.695002,99.9174972 150.227496,99.4250022 150.9625,98.995 C151.697504,98.5649978 152.659994,98.2125014 153.85,97.9375 C155.040006,97.6624986 156.494991,97.5050002 158.215,97.465 L158.215,96.28 C158.215,95.0999941 157.962503,94.207503 157.4575,93.6025 C156.952497,92.997497 156.205005,92.695 155.215,92.695 C154.564997,92.695 154.017502,92.7774992 153.5725,92.9425 C153.127498,93.1075008 152.742502,93.292499 152.4175,93.4975 C152.092498,93.702501 151.812501,93.8874992 151.5775,94.0525 C151.342499,94.2175008 151.110001,94.3 150.88,94.3 C150.699999,94.3 150.542501,94.2525005 150.4075,94.1575 C150.272499,94.0624995 150.165,93.9450007 150.085,93.805 L149.605,92.95 C150.445004,92.139996 151.349995,91.535002 152.32,91.135 C153.290005,90.734998 154.364994,90.535 155.545,90.535 C156.395004,90.535 157.149997,90.6749986 157.81,90.955 C158.470003,91.2350014 159.024998,91.6249975 159.475,92.125 C159.925002,92.6250025 160.264999,93.2299964 160.495,93.94 C160.725001,94.6500036 160.84,95.4299957 160.84,96.28 L160.84,106 Z M153.91,104.365 C154.380002,104.365 154.809998,104.3175 155.2,104.2225 C155.590002,104.1275 155.957498,103.992501 156.3025,103.8175 C156.647502,103.642499 156.977498,103.430001 157.2925,103.18 C157.607502,102.929999 157.914999,102.645002 158.215,102.325 L158.215,99.16 C156.984994,99.2000002 155.940004,99.2974992 155.08,99.4525 C154.219996,99.6075008 153.520003,99.8099987 152.98,100.06 C152.439997,100.310001 152.047501,100.604998 151.8025,100.945 C151.557499,101.285002 151.435,101.664998 151.435,102.085 C151.435,102.485002 151.499999,102.829999 151.63,103.12 C151.760001,103.410001 151.934999,103.647499 152.155,103.8325 C152.375001,104.017501 152.634999,104.1525 152.935,104.2375 C153.235002,104.3225 153.559998,104.365 153.91,104.365 Z M164.89,106 L164.89,90.805 L166.42,90.805 C166.710001,90.805 166.909999,90.8599995 167.02,90.97 C167.130001,91.0800006 167.205,91.2699986 167.245,91.54 L167.425,93.91 C167.945003,92.8499947 168.587496,92.022503 169.3525,91.4275 C170.117504,90.832497 171.014995,90.535 172.045,90.535 C172.465002,90.535 172.844998,90.5824995 173.185,90.6775 C173.525002,90.7725005 173.839999,90.9049991 174.13,91.075 L173.785,93.07 C173.715,93.3200013 173.560001,93.445 173.32,93.445 C173.179999,93.445 172.965001,93.3975005 172.675,93.3025 C172.384999,93.2074995 171.980003,93.16 171.46,93.16 C170.529995,93.16 169.752503,93.4299973 169.1275,93.97 C168.502497,94.5100027 167.980002,95.2949949 167.56,96.325 L167.56,106 L164.89,106 Z M176.98,106 L176.98,90.805 L178.57,90.805 C178.950002,90.805 179.189999,90.9899982 179.29,91.36 L179.5,93.01 C180.160003,92.2799963 180.897496,91.6900023 181.7125,91.24 C182.527504,90.7899977 183.469995,90.565 184.54,90.565 C185.370004,90.565 186.102497,90.7024986 186.7375,90.9775 C187.372503,91.2525014 187.902498,91.6424975 188.3275,92.1475 C188.752502,92.6525025 189.074999,93.2599965 189.295,93.97 C189.515001,94.6800035 189.625,95.4649957 189.625,96.325 L189.625,106 L186.955,106 L186.955,96.325 C186.955,95.1749942 186.692503,94.2825032 186.1675,93.6475 C185.642497,93.0124968 184.840005,92.695 183.76,92.695 C182.969996,92.695 182.232503,92.8849981 181.5475,93.265 C180.862497,93.6450019 180.230003,94.1599968 179.65,94.81 L179.65,106 L176.98,106 Z M210.61,106 L209.425,106 C209.164999,106 208.955001,105.96 208.795,105.88 C208.634999,105.8 208.53,105.630001 208.48,105.37 L208.18,103.96 C207.779998,104.320002 207.390002,104.642499 207.01,104.9275 C206.629998,105.212501 206.230002,105.452499 205.81,105.6475 C205.389998,105.842501 204.942502,105.99 204.4675,106.09 C203.992498,106.19 203.465003,106.24 202.885,106.24 C202.294997,106.24 201.742503,106.157501 201.2275,105.9925 C200.712497,105.827499 200.265002,105.580002 199.885,105.25 C199.504998,104.919998 199.202501,104.502503 198.9775,103.9975 C198.752499,103.492497 198.64,102.895003 198.64,102.205 C198.64,101.604997 198.804998,101.027503 199.135,100.4725 C199.465002,99.9174972 199.997496,99.4250022 200.7325,98.995 C201.467504,98.5649978 202.429994,98.2125014 203.62,97.9375 C204.810006,97.6624986 206.264991,97.5050002 207.985,97.465 L207.985,96.28 C207.985,95.0999941 207.732503,94.207503 207.2275,93.6025 C206.722497,92.997497 205.975005,92.695 204.985,92.695 C204.334997,92.695 203.787502,92.7774992 203.3425,92.9425 C202.897498,93.1075008 202.512502,93.292499 202.1875,93.4975 C201.862498,93.702501 201.582501,93.8874992 201.3475,94.0525 C201.112499,94.2175008 200.880001,94.3 200.65,94.3 C200.469999,94.3 200.312501,94.2525005 200.1775,94.1575 C200.042499,94.0624995 199.935,93.9450007 199.855,93.805 L199.375,92.95 C200.215004,92.139996 201.119995,91.535002 202.09,91.135 C203.060005,90.734998 204.134994,90.535 205.315,90.535 C206.165004,90.535 206.919997,90.6749986 207.58,90.955 C208.240003,91.2350014 208.794998,91.6249975 209.245,92.125 C209.695002,92.6250025 210.034999,93.2299964 210.265,93.94 C210.495001,94.6500036 210.61,95.4299957 210.61,96.28 L210.61,106 Z M203.68,104.365 C204.150002,104.365 204.579998,104.3175 204.97,104.2225 C205.360002,104.1275 205.727498,103.992501 206.0725,103.8175 C206.417502,103.642499 206.747498,103.430001 207.0625,103.18 C207.377502,102.929999 207.684999,102.645002 207.985,102.325 L207.985,99.16 C206.754994,99.2000002 205.710004,99.2974992 204.85,99.4525 C203.989996,99.6075008 203.290003,99.8099987 202.75,100.06 C202.209997,100.310001 201.817501,100.604998 201.5725,100.945 C201.327499,101.285002 201.205,101.664998 201.205,102.085 C201.205,102.485002 201.269999,102.829999 201.4,103.12 C201.530001,103.410001 201.704999,103.647499 201.925,103.8325 C202.145001,104.017501 202.404999,104.1525 202.705,104.2375 C203.005002,104.3225 203.329998,104.365 203.68,104.365 Z M214.75,106 L214.75,83.905 L217.435,83.905 L217.435,92.995 C218.065003,92.2649963 218.787496,91.6775022 219.6025,91.2325 C220.417504,90.7874978 221.349995,90.565 222.4,90.565 C223.280004,90.565 224.074996,90.7299984 224.785,91.06 C225.495004,91.3900016 226.099998,91.8824967 226.6,92.5375 C227.100003,93.1925033 227.484999,94.0024952 227.755,94.9675 C228.025001,95.9325048 228.16,97.0449937 228.16,98.305 C228.16,99.4250056 228.010002,100.467495 227.71,101.4325 C227.409999,102.397505 226.977503,103.232496 226.4125,103.9375 C225.847497,104.642504 225.157504,105.197498 224.3425,105.6025 C223.527496,106.007502 222.610005,106.21 221.59,106.21 C220.609995,106.21 219.777503,106.020002 219.0925,105.64 C218.407497,105.259998 217.810003,104.730003 217.3,104.05 L217.165,105.43 C217.085,105.810002 216.855002,106 216.475,106 L214.75,106 Z M221.53,92.695 C220.659996,92.695 219.897503,92.894998 219.2425,93.295 C218.587497,93.695002 217.985003,94.2599963 217.435,94.99 L217.435,102.34 C217.915002,103.000003 218.447497,103.464999 219.0325,103.735 C219.617503,104.005001 220.269996,104.14 220.99,104.14 C222.410007,104.14 223.499996,103.635005 224.26,102.625 C225.020004,101.614995 225.4,100.175009 225.4,98.305 C225.4,97.314995 225.312501,96.4650036 225.1375,95.755 C224.962499,95.0449964 224.710002,94.4625023 224.38,94.0075 C224.049998,93.5524977 223.645002,93.2200011 223.165,93.01 C222.684998,92.7999989 222.140003,92.695 221.53,92.695 Z M240.13,93.31 C240.009999,93.5300011 239.825001,93.64 239.575,93.64 C239.424999,93.64 239.255001,93.5850006 239.065,93.475 C238.874999,93.3649995 238.642501,93.2425007 238.3675,93.1075 C238.092499,92.9724993 237.765002,92.8475006 237.385,92.7325 C237.004998,92.6174994 236.555003,92.56 236.035,92.56 C235.584998,92.56 235.180002,92.6174994 234.82,92.7325 C234.459998,92.8475006 234.152501,93.004999 233.8975,93.205 C233.642499,93.405001 233.447501,93.6374987 233.3125,93.9025 C233.177499,94.1675013 233.11,94.4549985 233.11,94.765 C233.11,95.1550019 233.222499,95.4799987 233.4475,95.74 C233.672501,96.0000013 233.969998,96.2249991 234.34,96.415 C234.710002,96.6050009 235.129998,96.7724993 235.6,96.9175 C236.070002,97.0625007 236.552498,97.2174992 237.0475,97.3825 C237.542502,97.5475008 238.024998,97.729999 238.495,97.93 C238.965002,98.130001 239.384998,98.3799985 239.755,98.68 C240.125002,98.9800015 240.422499,99.3474978 240.6475,99.7825 C240.872501,100.217502 240.985,100.739997 240.985,101.35 C240.985,102.050004 240.860001,102.697497 240.61,103.2925 C240.359999,103.887503 239.990002,104.402498 239.5,104.8375 C239.009998,105.272502 238.410004,105.614999 237.7,105.865 C236.989996,106.115001 236.170005,106.24 235.24,106.24 C234.179995,106.24 233.220004,106.067502 232.36,105.7225 C231.499996,105.377498 230.770003,104.935003 230.17,104.395 L230.8,103.375 C230.88,103.244999 230.974999,103.145 231.085,103.075 C231.195001,103.005 231.339999,102.97 231.52,102.97 C231.700001,102.97 231.889999,103.039999 232.09,103.18 C232.290001,103.320001 232.532499,103.474999 232.8175,103.645 C233.102501,103.815001 233.447498,103.969999 233.8525,104.11 C234.257502,104.250001 234.764997,104.32 235.375,104.32 C235.895003,104.32 236.349998,104.252501 236.74,104.1175 C237.130002,103.982499 237.454999,103.800001 237.715,103.57 C237.975001,103.339999 238.167499,103.075001 238.2925,102.775 C238.417501,102.474998 238.48,102.155002 238.48,101.815 C238.48,101.394998 238.367501,101.047501 238.1425,100.7725 C237.917499,100.497499 237.620002,100.262501 237.25,100.0675 C236.879998,99.872499 236.457502,99.7025007 235.9825,99.5575 C235.507498,99.4124993 235.022502,99.2600008 234.5275,99.1 C234.032498,98.9399992 233.547502,98.757501 233.0725,98.5525 C232.597498,98.347499 232.175002,98.0900016 231.805,97.78 C231.434998,97.4699984 231.137501,97.0875023 230.9125,96.6325 C230.687499,96.1774977 230.575,95.6250033 230.575,94.975 C230.575,94.3949971 230.694999,93.8375027 230.935,93.3025 C231.175001,92.7674973 231.524998,92.297502 231.985,91.8925 C232.445002,91.487498 233.009997,91.1650012 233.68,90.925 C234.350003,90.6849988 235.114996,90.565 235.975,90.565 C236.975005,90.565 237.872496,90.7224984 238.6675,91.0375 C239.462504,91.3525016 240.149997,91.7849973 240.73,92.335 L240.13,93.31 Z M250.6,90.565 C251.710006,90.565 252.712496,90.7499982 253.6075,91.12 C254.502504,91.4900018 255.262497,92.0149966 255.8875,92.695 C256.512503,93.3750034 256.992498,94.1974952 257.3275,95.1625 C257.662502,96.1275048 257.83,97.204994 257.83,98.395 C257.83,99.595006 257.662502,100.674995 257.3275,101.635 C256.992498,102.595005 256.512503,103.414997 255.8875,104.095 C255.262497,104.775003 254.502504,105.297498 253.6075,105.6625 C252.712496,106.027502 251.710006,106.21 250.6,106.21 C249.489994,106.21 248.487504,106.027502 247.5925,105.6625 C246.697496,105.297498 245.935003,104.775003 245.305,104.095 C244.674997,103.414997 244.190002,102.595005 243.85,101.635 C243.509998,100.674995 243.34,99.595006 243.34,98.395 C243.34,97.204994 243.509998,96.1275048 243.85,95.1625 C244.190002,94.1974952 244.674997,93.3750034 245.305,92.695 C245.935003,92.0149966 246.697496,91.4900018 247.5925,91.12 C248.487504,90.7499982 249.489994,90.565 250.6,90.565 Z M250.6,104.125 C252.100008,104.125 253.219996,103.622505 253.96,102.6175 C254.700004,101.612495 255.07,100.210009 255.07,98.41 C255.07,96.599991 254.700004,95.190005 253.96,94.18 C253.219996,93.1699949 252.100008,92.665 250.6,92.665 C249.839996,92.665 249.180003,92.7949987 248.62,93.055 C248.059997,93.3150013 247.592502,93.6899975 247.2175,94.18 C246.842498,94.6700024 246.562501,95.2724964 246.3775,95.9875 C246.192499,96.7025036 246.1,97.5099955 246.1,98.41 C246.1,99.3100045 246.192499,100.114996 246.3775,100.825 C246.562501,101.535004 246.842498,102.132498 247.2175,102.6175 C247.592502,103.102502 248.059997,103.474999 248.62,103.735 C249.180003,103.995001 249.839996,104.125 250.6,104.125 Z M264.1,83.905 L264.1,106 L261.43,106 L261.43,83.905 L264.1,83.905 Z M271.12,90.805 L271.12,100.495 C271.12,101.645006 271.384997,102.534997 271.915,103.165 C272.445003,103.795003 273.244995,104.11 274.315,104.11 C275.095004,104.11 275.829997,103.925002 276.52,103.555 C277.210003,103.184998 277.844997,102.670003 278.425,102.01 L278.425,90.805 L281.095,90.805 L281.095,106 L279.505,106 C279.124998,106 278.885001,105.815002 278.785,105.445 L278.575,103.81 C277.914997,104.540004 277.175004,105.127498 276.355,105.5725 C275.534996,106.017502 274.595005,106.24 273.535,106.24 C272.704996,106.24 271.972503,106.102501 271.3375,105.8275 C270.702497,105.552499 270.170002,105.165003 269.74,104.665 C269.309998,104.164998 268.987501,103.560004 268.7725,102.85 C268.557499,102.139996 268.45,101.355004 268.45,100.495 L268.45,90.805 L271.12,90.805 Z M290.095,106.24 C288.894994,106.24 287.972503,105.905003 287.3275,105.235 C286.682497,104.564997 286.36,103.600006 286.36,102.34 L286.36,93.04 L284.53,93.04 C284.369999,93.04 284.235001,92.9925005 284.125,92.8975 C284.014999,92.8024995 283.96,92.655001 283.96,92.455 L283.96,91.39 L286.45,91.075 L287.065,86.38 C287.085,86.2299992 287.149999,86.1075005 287.26,86.0125 C287.370001,85.9174995 287.509999,85.87 287.68,85.87 L289.03,85.87 L289.03,91.105 L293.38,91.105 L293.38,93.04 L289.03,93.04 L289.03,102.16 C289.03,102.800003 289.184998,103.274998 289.495,103.585 C289.805002,103.895002 290.204998,104.05 290.695,104.05 C290.975001,104.05 291.217499,104.0125 291.4225,103.9375 C291.627501,103.8625 291.804999,103.78 291.955,103.69 C292.105001,103.6 292.232499,103.5175 292.3375,103.4425 C292.442501,103.3675 292.535,103.33 292.615,103.33 C292.755001,103.33 292.879999,103.414999 292.99,103.585 L293.77,104.86 C293.309998,105.290002 292.755003,105.627499 292.105,105.8725 C291.454997,106.117501 290.785003,106.24 290.095,106.24 Z M302.695,90.565 C303.605005,90.565 304.444996,90.7174985 305.215,91.0225 C305.985004,91.3275015 306.649997,91.7674971 307.21,92.3425 C307.770003,92.9175029 308.207498,93.6274958 308.5225,94.4725 C308.837502,95.3175042 308.995,96.2799946 308.995,97.36 C308.995,97.7800021 308.95,98.0599993 308.86,98.2 C308.77,98.3400007 308.600001,98.41 308.35,98.41 L298.24,98.41 C298.26,99.3700048 298.389999,100.204996 298.63,100.915 C298.870001,101.625004 299.199998,102.217498 299.62,102.6925 C300.040002,103.167502 300.539997,103.522499 301.12,103.7575 C301.700003,103.992501 302.349996,104.11 303.07,104.11 C303.740003,104.11 304.317498,104.032501 304.8025,103.8775 C305.287502,103.722499 305.704998,103.555001 306.055,103.375 C306.405002,103.194999 306.697499,103.027501 306.9325,102.8725 C307.167501,102.717499 307.369999,102.64 307.54,102.64 C307.760001,102.64 307.929999,102.724999 308.05,102.895 L308.8,103.87 C308.469998,104.270002 308.075002,104.617499 307.615,104.9125 C307.154998,105.207501 306.662503,105.449999 306.1375,105.64 C305.612497,105.830001 305.070003,105.9725 304.51,106.0675 C303.949997,106.1625 303.395003,106.21 302.845,106.21 C301.794995,106.21 300.827504,106.032502 299.9425,105.6775 C299.057496,105.322498 298.292503,104.802503 297.6475,104.1175 C297.002497,103.432497 296.500002,102.585005 296.14,101.575 C295.779998,100.564995 295.6,99.4050065 295.6,98.095 C295.6,97.0349947 295.762498,96.0450046 296.0875,95.125 C296.412502,94.2049954 296.879997,93.4075034 297.49,92.7325 C298.100003,92.0574966 298.844996,91.5275019 299.725,91.1425 C300.605004,90.7574981 301.594994,90.565 302.695,90.565 Z M302.755,92.53 C301.464994,92.53 300.450004,92.9024963 299.71,93.6475 C298.969996,94.3925037 298.510001,95.4249934 298.33,96.745 L306.595,96.745 C306.595,96.1249969 306.510001,95.5575026 306.34,95.0425 C306.169999,94.5274974 305.920002,94.0825019 305.59,93.7075 C305.259998,93.3324981 304.857502,93.042501 304.3825,92.8375 C303.907498,92.632499 303.365003,92.53 302.755,92.53 Z M315.37,83.905 L315.37,106 L312.7,106 L312.7,83.905 L315.37,83.905 Z M324.535,110.485 C324.445,110.685001 324.332501,110.844999 324.1975,110.965 C324.062499,111.085001 323.855001,111.145 323.575,111.145 L321.595,111.145 L324.37,105.115 L318.1,90.805 L320.41,90.805 C320.640001,90.805 320.819999,90.8624994 320.95,90.9775 C321.080001,91.0925006 321.175,91.2199993 321.235,91.36 L325.3,100.93 C325.39,101.150001 325.4675,101.369999 325.5325,101.59 C325.5975,101.810001 325.655,102.034999 325.705,102.265 C325.775,102.034999 325.845,101.810001 325.915,101.59 C325.985,101.369999 326.065,101.145001 326.155,100.915 L330.1,91.36 C330.16,91.1999992 330.262499,91.0675005 330.4075,90.9625 C330.552501,90.8574995 330.709999,90.805 330.88,90.805 L333.01,90.805 L324.535,110.485 Z M44.08,142 L44.08,126.805 L45.67,126.805 C46.0500019,126.805 46.2899995,126.989998 46.39,127.36 L46.6,129.01 C47.2600033,128.279996 47.9974959,127.690002 48.8125,127.24 C49.6275041,126.789998 50.5699947,126.565 51.64,126.565 C52.4700041,126.565 53.2024968,126.702499 53.8375,126.9775 C54.4725032,127.252501 55.0024979,127.642497 55.4275,128.1475 C55.8525021,128.652503 56.1749989,129.259996 56.395,129.97 C56.6150011,130.680004 56.725,131.464996 56.725,132.325 L56.725,142 L54.055,142 L54.055,132.325 C54.055,131.174994 53.7925026,130.282503 53.2675,129.6475 C52.7424974,129.012497 51.9400054,128.695 50.86,128.695 C50.069996,128.695 49.3325034,128.884998 48.6475,129.265 C47.9624966,129.645002 47.3300029,130.159997 46.75,130.81 L46.75,142 L44.08,142 Z M66.91,126.565 C68.0200056,126.565 69.0224955,126.749998 69.9175,127.12 C70.8125045,127.490002 71.5724969,128.014997 72.1975,128.695 C72.8225031,129.375003 73.3024983,130.197495 73.6375,131.1625 C73.9725017,132.127505 74.14,133.204994 74.14,134.395 C74.14,135.595006 73.9725017,136.674995 73.6375,137.635 C73.3024983,138.595005 72.8225031,139.414997 72.1975,140.095 C71.5724969,140.775003 70.8125045,141.297498 69.9175,141.6625 C69.0224955,142.027502 68.0200056,142.21 66.91,142.21 C65.7999944,142.21 64.7975045,142.027502 63.9025,141.6625 C63.0074955,141.297498 62.2450032,140.775003 61.615,140.095 C60.9849969,139.414997 60.5000017,138.595005 60.16,137.635 C59.8199983,136.674995 59.65,135.595006 59.65,134.395 C59.65,133.204994 59.8199983,132.127505 60.16,131.1625 C60.5000017,130.197495 60.9849969,129.375003 61.615,128.695 C62.2450032,128.014997 63.0074955,127.490002 63.9025,127.12 C64.7975045,126.749998 65.7999944,126.565 66.91,126.565 Z M66.91,140.125 C68.4100075,140.125 69.5299963,139.622505 70.27,138.6175 C71.0100037,137.612495 71.38,136.210009 71.38,134.41 C71.38,132.599991 71.0100037,131.190005 70.27,130.18 C69.5299963,129.169995 68.4100075,128.665 66.91,128.665 C66.1499962,128.665 65.4900028,128.794999 64.93,129.055 C64.3699972,129.315001 63.9025019,129.689998 63.5275,130.18 C63.1524981,130.670002 62.8725009,131.272496 62.6875,131.9875 C62.5024991,132.702504 62.41,133.509996 62.41,134.41 C62.41,135.310004 62.5024991,136.114996 62.6875,136.825 C62.8725009,137.535004 63.1524981,138.132498 63.5275,138.6175 C63.9025019,139.102502 64.3699972,139.474999 64.93,139.735 C65.4900028,139.995001 66.1499962,140.125 66.91,140.125 Z M82.045,142.24 C80.844994,142.24 79.9225032,141.905003 79.2775,141.235 C78.6324968,140.564997 78.31,139.600006 78.31,138.34 L78.31,129.04 L76.48,129.04 C76.3199992,129.04 76.1850005,128.9925 76.075,128.8975 C75.9649994,128.8025 75.91,128.655001 75.91,128.455 L75.91,127.39 L78.4,127.075 L79.015,122.38 C79.0350001,122.229999 79.0999994,122.1075 79.21,122.0125 C79.3200005,121.9175 79.4599991,121.87 79.63,121.87 L80.98,121.87 L80.98,127.105 L85.33,127.105 L85.33,129.04 L80.98,129.04 L80.98,138.16 C80.98,138.800003 81.1349985,139.274998 81.445,139.585 C81.7550015,139.895002 82.1549975,140.05 82.645,140.05 C82.9250014,140.05 83.167499,140.0125 83.3725,139.9375 C83.577501,139.8625 83.7549992,139.78 83.905,139.69 C84.0550007,139.6 84.1824995,139.5175 84.2875,139.4425 C84.3925005,139.3675 84.4849996,139.33 84.565,139.33 C84.7050007,139.33 84.8299995,139.414999 84.94,139.585 L85.72,140.86 C85.2599977,141.290002 84.7050033,141.627499 84.055,141.8725 C83.4049968,142.117501 82.7350034,142.24 82.045,142.24 Z M88.63,142 L88.63,119.905 L91.3,119.905 L91.3,128.845 C91.9500033,128.154997 92.6699961,127.602502 93.46,127.1875 C94.2500039,126.772498 95.1599948,126.565 96.19,126.565 C97.0200041,126.565 97.7524968,126.702499 98.3875,126.9775 C99.0225032,127.252501 99.5524979,127.642497 99.9775,128.1475 C100.402502,128.652503 100.724999,129.259996 100.945,129.97 C101.165001,130.680004 101.275,131.464996 101.275,132.325 L101.275,142 L98.605,142 L98.605,132.325 C98.605,131.174994 98.3425026,130.282503 97.8175,129.6475 C97.2924974,129.012497 96.4900054,128.695 95.41,128.695 C94.619996,128.695 93.8825034,128.884998 93.1975,129.265 C92.5124966,129.645002 91.8800029,130.159997 91.3,130.81 L91.3,142 L88.63,142 Z M108.28,126.805 L108.28,142 L105.61,142 L105.61,126.805 L108.28,126.805 Z M108.88,122.035 C108.88,122.295001 108.827501,122.537499 108.7225,122.7625 C108.617499,122.987501 108.477501,123.187499 108.3025,123.3625 C108.127499,123.537501 107.925001,123.675 107.695,123.775 C107.464999,123.875 107.220001,123.925 106.96,123.925 C106.699999,123.925 106.457501,123.875 106.2325,123.775 C106.007499,123.675 105.807501,123.537501 105.6325,123.3625 C105.457499,123.187499 105.32,122.987501 105.22,122.7625 C105.12,122.537499 105.07,122.295001 105.07,122.035 C105.07,121.774999 105.12,121.527501 105.22,121.2925 C105.32,121.057499 105.457499,120.852501 105.6325,120.6775 C105.807501,120.502499 106.007499,120.365001 106.2325,120.265 C106.457501,120.165 106.699999,120.115 106.96,120.115 C107.220001,120.115 107.464999,120.165 107.695,120.265 C107.925001,120.365001 108.127499,120.502499 108.3025,120.6775 C108.477501,120.852501 108.617499,121.057499 108.7225,121.2925 C108.827501,121.527501 108.88,121.774999 108.88,122.035 Z M112.99,142 L112.99,126.805 L114.58,126.805 C114.960002,126.805 115.199999,126.989998 115.3,127.36 L115.51,129.01 C116.170003,128.279996 116.907496,127.690002 117.7225,127.24 C118.537504,126.789998 119.479995,126.565 120.55,126.565 C121.380004,126.565 122.112497,126.702499 122.7475,126.9775 C123.382503,127.252501 123.912498,127.642497 124.3375,128.1475 C124.762502,128.652503 125.084999,129.259996 125.305,129.97 C125.525001,130.680004 125.635,131.464996 125.635,132.325 L125.635,142 L122.965,142 L122.965,132.325 C122.965,131.174994 122.702503,130.282503 122.1775,129.6475 C121.652497,129.012497 120.850005,128.695 119.77,128.695 C118.979996,128.695 118.242503,128.884998 117.5575,129.265 C116.872497,129.645002 116.240003,130.159997 115.66,130.81 L115.66,142 L112.99,142 Z M134.785,126.55 C135.445003,126.55 136.062497,126.622499 136.6375,126.7675 C137.212503,126.912501 137.734998,127.124999 138.205,127.405 L142.33,127.405 L142.33,128.395 C142.33,128.725002 142.120002,128.935 141.7,129.025 L139.975,129.265 C140.315002,129.915003 140.485,130.639996 140.485,131.44 C140.485,132.180004 140.342501,132.852497 140.0575,133.4575 C139.772499,134.062503 139.377503,134.579998 138.8725,135.01 C138.367497,135.440002 137.767503,135.769999 137.0725,136 C136.377497,136.230001 135.615004,136.345 134.785,136.345 C134.074996,136.345 133.405003,136.260001 132.775,136.09 C132.454998,136.290001 132.212501,136.504999 132.0475,136.735 C131.882499,136.965001 131.8,137.189999 131.8,137.41 C131.8,137.770002 131.944999,138.042499 132.235,138.2275 C132.525001,138.412501 132.909998,138.545 133.39,138.625 C133.870002,138.705 134.414997,138.755 135.025,138.775 C135.635003,138.795 136.257497,138.8275 136.8925,138.8725 C137.527503,138.9175 138.149997,138.994999 138.76,139.105 C139.370003,139.215001 139.914998,139.394999 140.395,139.645 C140.875002,139.895001 141.259999,140.239998 141.55,140.68 C141.840001,141.120002 141.985,141.689997 141.985,142.39 C141.985,143.040003 141.822502,143.669997 141.4975,144.28 C141.172498,144.890003 140.705003,145.432498 140.095,145.9075 C139.484997,146.382502 138.740004,146.762499 137.86,147.0475 C136.979996,147.332501 135.985006,147.475 134.875,147.475 C133.764994,147.475 132.792504,147.365001 131.9575,147.145 C131.122496,146.924999 130.430003,146.630002 129.88,146.26 C129.329997,145.889998 128.917501,145.462502 128.6425,144.9775 C128.367499,144.492498 128.23,143.985003 128.23,143.455 C128.23,142.704996 128.467498,142.067503 128.9425,141.5425 C129.417502,141.017497 130.069996,140.600002 130.9,140.29 C130.469998,140.089999 130.127501,139.822502 129.8725,139.4875 C129.617499,139.152498 129.49,138.705003 129.49,138.145 C129.49,137.924999 129.53,137.697501 129.61,137.4625 C129.69,137.227499 129.812499,136.995001 129.9775,136.765 C130.142501,136.534999 130.344999,136.315001 130.585,136.105 C130.825001,135.894999 131.104998,135.710001 131.425,135.55 C130.674996,135.129998 130.087502,134.572503 129.6625,133.8775 C129.237498,133.182497 129.025,132.370005 129.025,131.44 C129.025,130.699996 129.167499,130.027503 129.4525,129.4225 C129.737501,128.817497 130.134997,128.302502 130.645,127.8775 C131.155003,127.452498 131.762496,127.125001 132.4675,126.895 C133.172504,126.664999 133.944996,126.55 134.785,126.55 Z M139.525,142.825 C139.525,142.444998 139.420001,142.140001 139.21,141.91 C138.999999,141.679999 138.715002,141.502501 138.355,141.3775 C137.994998,141.252499 137.580002,141.16 137.11,141.1 C136.639998,141.04 136.145003,140.9975 135.625,140.9725 C135.104997,140.9475 134.575003,140.92 134.035,140.89 C133.494997,140.86 132.980002,140.805 132.49,140.725 C131.919997,140.995001 131.457502,141.324998 131.1025,141.715 C130.747498,142.105002 130.57,142.569997 130.57,143.11 C130.57,143.450002 130.657499,143.767499 130.8325,144.0625 C131.007501,144.357501 131.274998,144.612499 131.635,144.8275 C131.995002,145.042501 132.447497,145.212499 132.9925,145.3375 C133.537503,145.462501 134.179996,145.525 134.92,145.525 C135.640004,145.525 136.284997,145.460001 136.855,145.33 C137.425003,145.199999 137.907498,145.015001 138.3025,144.775 C138.697502,144.534999 138.999999,144.250002 139.21,143.92 C139.420001,143.589998 139.525,143.225002 139.525,142.825 Z M134.785,134.575 C135.325003,134.575 135.802498,134.500001 136.2175,134.35 C136.632502,134.199999 136.979999,133.990001 137.26,133.72 C137.540001,133.449999 137.749999,133.127502 137.89,132.7525 C138.030001,132.377498 138.1,131.965002 138.1,131.515 C138.1,130.584995 137.817503,129.845003 137.2525,129.295 C136.687497,128.744997 135.865005,128.47 134.785,128.47 C133.714995,128.47 132.897503,128.744997 132.3325,129.295 C131.767497,129.845003 131.485,130.584995 131.485,131.515 C131.485,131.965002 131.557499,132.377498 131.7025,132.7525 C131.847501,133.127502 132.059999,133.449999 132.34,133.72 C132.620001,133.990001 132.964998,134.199999 133.375,134.35 C133.785002,134.500001 134.254997,134.575 134.785,134.575 Z M151.39,142 L151.39,129.085 L149.71,128.89 C149.499999,128.84 149.327501,128.762501 149.1925,128.6575 C149.057499,128.552499 148.99,128.400001 148.99,128.2 L148.99,127.105 L151.39,127.105 L151.39,125.635 C151.39,124.764996 151.512499,123.992503 151.7575,123.3175 C152.002501,122.642497 152.352498,122.072502 152.8075,121.6075 C153.262502,121.142498 153.809997,120.790001 154.45,120.55 C155.090003,120.309999 155.809996,120.19 156.61,120.19 C157.290003,120.19 157.919997,120.289999 158.5,120.49 L158.44,121.825 C158.43,122.025001 158.345001,122.145 158.185,122.185 C158.024999,122.225 157.800001,122.245 157.51,122.245 L157.045,122.245 C156.584998,122.245 156.167502,122.304999 155.7925,122.425 C155.417498,122.545001 155.095001,122.739999 154.825,123.01 C154.554999,123.280001 154.347501,123.634998 154.2025,124.075 C154.057499,124.515002 153.985,125.059997 153.985,125.71 L153.985,127.105 L158.38,127.105 L158.38,129.04 L154.075,129.04 L154.075,142 L151.39,142 Z M160.9,142 L160.9,126.805 L162.43,126.805 C162.720001,126.805 162.919999,126.859999 163.03,126.97 C163.140001,127.080001 163.215,127.269999 163.255,127.54 L163.435,129.91 C163.955003,128.849995 164.597496,128.022503 165.3625,127.4275 C166.127504,126.832497 167.024995,126.535 168.055,126.535 C168.475002,126.535 168.854998,126.5825 169.195,126.6775 C169.535002,126.7725 169.849999,126.904999 170.14,127.075 L169.795,129.07 C169.725,129.320001 169.570001,129.445 169.33,129.445 C169.189999,129.445 168.975001,129.3975 168.685,129.3025 C168.394999,129.2075 167.990003,129.16 167.47,129.16 C166.539995,129.16 165.762503,129.429997 165.1375,129.97 C164.512497,130.510003 163.990002,131.294995 163.57,132.325 L163.57,142 L160.9,142 Z M179.14,126.565 C180.250006,126.565 181.252496,126.749998 182.1475,127.12 C183.042504,127.490002 183.802497,128.014997 184.4275,128.695 C185.052503,129.375003 185.532498,130.197495 185.8675,131.1625 C186.202502,132.127505 186.37,133.204994 186.37,134.395 C186.37,135.595006 186.202502,136.674995 185.8675,137.635 C185.532498,138.595005 185.052503,139.414997 184.4275,140.095 C183.802497,140.775003 183.042504,141.297498 182.1475,141.6625 C181.252496,142.027502 180.250006,142.21 179.14,142.21 C178.029994,142.21 177.027504,142.027502 176.1325,141.6625 C175.237496,141.297498 174.475003,140.775003 173.845,140.095 C173.214997,139.414997 172.730002,138.595005 172.39,137.635 C172.049998,136.674995 171.88,135.595006 171.88,134.395 C171.88,133.204994 172.049998,132.127505 172.39,131.1625 C172.730002,130.197495 173.214997,129.375003 173.845,128.695 C174.475003,128.014997 175.237496,127.490002 176.1325,127.12 C177.027504,126.749998 178.029994,126.565 179.14,126.565 Z M179.14,140.125 C180.640008,140.125 181.759996,139.622505 182.5,138.6175 C183.240004,137.612495 183.61,136.210009 183.61,134.41 C183.61,132.599991 183.240004,131.190005 182.5,130.18 C181.759996,129.169995 180.640008,128.665 179.14,128.665 C178.379996,128.665 177.720003,128.794999 177.16,129.055 C176.599997,129.315001 176.132502,129.689998 175.7575,130.18 C175.382498,130.670002 175.102501,131.272496 174.9175,131.9875 C174.732499,132.702504 174.64,133.509996 174.64,134.41 C174.64,135.310004 174.732499,136.114996 174.9175,136.825 C175.102501,137.535004 175.382498,138.132498 175.7575,138.6175 C176.132502,139.102502 176.599997,139.474999 177.16,139.735 C177.720003,139.995001 178.379996,140.125 179.14,140.125 Z M189.67,142 L189.67,126.805 L191.26,126.805 C191.640002,126.805 191.879999,126.989998 191.98,127.36 L192.175,128.92 C192.735003,128.229997 193.362497,127.665002 194.0575,127.225 C194.752503,126.784998 195.559995,126.565 196.48,126.565 C197.510005,126.565 198.342497,126.849997 198.9775,127.42 C199.612503,127.990003 200.069999,128.759995 200.35,129.73 C200.560001,129.179997 200.837498,128.705002 201.1825,128.305 C201.527502,127.904998 201.914998,127.575001 202.345,127.315 C202.775002,127.054999 203.232498,126.865001 203.7175,126.745 C204.202502,126.624999 204.694997,126.565 205.195,126.565 C205.995004,126.565 206.707497,126.692499 207.3325,126.9475 C207.957503,127.202501 208.487498,127.574998 208.9225,128.065 C209.357502,128.555002 209.689999,129.157496 209.92,129.8725 C210.150001,130.587504 210.265,131.404995 210.265,132.325 L210.265,142 L207.595,142 L207.595,132.325 C207.595,131.134994 207.335003,130.232503 206.815,129.6175 C206.294997,129.002497 205.540005,128.695 204.55,128.695 C204.109998,128.695 203.692502,128.772499 203.2975,128.9275 C202.902498,129.082501 202.555002,129.309999 202.255,129.61 C201.954998,129.910002 201.717501,130.287498 201.5425,130.7425 C201.367499,131.197502 201.28,131.724997 201.28,132.325 L201.28,142 L198.61,142 L198.61,132.325 C198.61,131.104994 198.365002,130.195003 197.875,129.595 C197.384998,128.994997 196.670005,128.695 195.73,128.695 C195.069997,128.695 194.457503,128.872498 193.8925,129.2275 C193.327497,129.582502 192.810002,130.064997 192.34,130.675 L192.34,142 L189.67,142 Z M224.695,142.24 C223.494994,142.24 222.572503,141.905003 221.9275,141.235 C221.282497,140.564997 220.96,139.600006 220.96,138.34 L220.96,129.04 L219.13,129.04 C218.969999,129.04 218.835001,128.9925 218.725,128.8975 C218.614999,128.8025 218.56,128.655001 218.56,128.455 L218.56,127.39 L221.05,127.075 L221.665,122.38 C221.685,122.229999 221.749999,122.1075 221.86,122.0125 C221.970001,121.9175 222.109999,121.87 222.28,121.87 L223.63,121.87 L223.63,127.105 L227.98,127.105 L227.98,129.04 L223.63,129.04 L223.63,138.16 C223.63,138.800003 223.784998,139.274998 224.095,139.585 C224.405002,139.895002 224.804998,140.05 225.295,140.05 C225.575001,140.05 225.817499,140.0125 226.0225,139.9375 C226.227501,139.8625 226.404999,139.78 226.555,139.69 C226.705001,139.6 226.832499,139.5175 226.9375,139.4425 C227.042501,139.3675 227.135,139.33 227.215,139.33 C227.355001,139.33 227.479999,139.414999 227.59,139.585 L228.37,140.86 C227.909998,141.290002 227.355003,141.627499 226.705,141.8725 C226.054997,142.117501 225.385003,142.24 224.695,142.24 Z M231.28,142 L231.28,119.905 L233.95,119.905 L233.95,128.845 C234.600003,128.154997 235.319996,127.602502 236.11,127.1875 C236.900004,126.772498 237.809995,126.565 238.84,126.565 C239.670004,126.565 240.402497,126.702499 241.0375,126.9775 C241.672503,127.252501 242.202498,127.642497 242.6275,128.1475 C243.052502,128.652503 243.374999,129.259996 243.595,129.97 C243.815001,130.680004 243.925,131.464996 243.925,132.325 L243.925,142 L241.255,142 L241.255,132.325 C241.255,131.174994 240.992503,130.282503 240.4675,129.6475 C239.942497,129.012497 239.140005,128.695 238.06,128.695 C237.269996,128.695 236.532503,128.884998 235.8475,129.265 C235.162497,129.645002 234.530003,130.159997 233.95,130.81 L233.95,142 L231.28,142 Z M250.93,126.805 L250.93,142 L248.26,142 L248.26,126.805 L250.93,126.805 Z M251.53,122.035 C251.53,122.295001 251.477501,122.537499 251.3725,122.7625 C251.267499,122.987501 251.127501,123.187499 250.9525,123.3625 C250.777499,123.537501 250.575001,123.675 250.345,123.775 C250.114999,123.875 249.870001,123.925 249.61,123.925 C249.349999,123.925 249.107501,123.875 248.8825,123.775 C248.657499,123.675 248.457501,123.537501 248.2825,123.3625 C248.107499,123.187499 247.97,122.987501 247.87,122.7625 C247.769999,122.537499 247.72,122.295001 247.72,122.035 C247.72,121.774999 247.769999,121.527501 247.87,121.2925 C247.97,121.057499 248.107499,120.852501 248.2825,120.6775 C248.457501,120.502499 248.657499,120.365001 248.8825,120.265 C249.107501,120.165 249.349999,120.115 249.61,120.115 C249.870001,120.115 250.114999,120.165 250.345,120.265 C250.575001,120.365001 250.777499,120.502499 250.9525,120.6775 C251.127501,120.852501 251.267499,121.057499 251.3725,121.2925 C251.477501,121.527501 251.53,121.774999 251.53,122.035 Z M264.34,129.31 C264.219999,129.530001 264.035001,129.64 263.785,129.64 C263.634999,129.64 263.465001,129.585001 263.275,129.475 C263.084999,129.364999 262.852501,129.242501 262.5775,129.1075 C262.302499,128.972499 261.975002,128.847501 261.595,128.7325 C261.214998,128.617499 260.765003,128.56 260.245,128.56 C259.794998,128.56 259.390002,128.617499 259.03,128.7325 C258.669998,128.847501 258.362501,129.004999 258.1075,129.205 C257.852499,129.405001 257.657501,129.637499 257.5225,129.9025 C257.387499,130.167501 257.32,130.454998 257.32,130.765 C257.32,131.155002 257.432499,131.479999 257.6575,131.74 C257.882501,132.000001 258.179998,132.224999 258.55,132.415 C258.920002,132.605001 259.339998,132.772499 259.81,132.9175 C260.280002,133.062501 260.762498,133.217499 261.2575,133.3825 C261.752502,133.547501 262.234998,133.729999 262.705,133.93 C263.175002,134.130001 263.594998,134.379998 263.965,134.68 C264.335002,134.980002 264.632499,135.347498 264.8575,135.7825 C265.082501,136.217502 265.195,136.739997 265.195,137.35 C265.195,138.050004 265.070001,138.697497 264.82,139.2925 C264.569999,139.887503 264.200002,140.402498 263.71,140.8375 C263.219998,141.272502 262.620004,141.614999 261.91,141.865 C261.199996,142.115001 260.380005,142.24 259.45,142.24 C258.389995,142.24 257.430004,142.067502 256.57,141.7225 C255.709996,141.377498 254.980003,140.935003 254.38,140.395 L255.01,139.375 C255.09,139.244999 255.184999,139.145 255.295,139.075 C255.405001,139.005 255.549999,138.97 255.73,138.97 C255.910001,138.97 256.099999,139.039999 256.3,139.18 C256.500001,139.320001 256.742499,139.474999 257.0275,139.645 C257.312501,139.815001 257.657498,139.969999 258.0625,140.11 C258.467502,140.250001 258.974997,140.32 259.585,140.32 C260.105003,140.32 260.559998,140.252501 260.95,140.1175 C261.340002,139.982499 261.664999,139.800001 261.925,139.57 C262.185001,139.339999 262.377499,139.075001 262.5025,138.775 C262.627501,138.474998 262.69,138.155002 262.69,137.815 C262.69,137.394998 262.577501,137.047501 262.3525,136.7725 C262.127499,136.497499 261.830002,136.262501 261.46,136.0675 C261.089998,135.872499 260.667502,135.702501 260.1925,135.5575 C259.717498,135.412499 259.232502,135.260001 258.7375,135.1 C258.242498,134.939999 257.757502,134.757501 257.2825,134.5525 C256.807498,134.347499 256.385002,134.090002 256.015,133.78 C255.644998,133.469998 255.347501,133.087502 255.1225,132.6325 C254.897499,132.177498 254.785,131.625003 254.785,130.975 C254.785,130.394997 254.904999,129.837503 255.145,129.3025 C255.385001,128.767497 255.734998,128.297502 256.195,127.8925 C256.655002,127.487498 257.219997,127.165001 257.89,126.925 C258.560003,126.684999 259.324996,126.565 260.185,126.565 C261.185005,126.565 262.082496,126.722498 262.8775,127.0375 C263.672504,127.352502 264.359997,127.784997 264.94,128.335 L264.34,129.31 Z M274.54,142 L274.54,119.905 L277.225,119.905 L277.225,128.995 C277.855003,128.264996 278.577496,127.677502 279.3925,127.2325 C280.207504,126.787498 281.139995,126.565 282.19,126.565 C283.070004,126.565 283.864996,126.729998 284.575,127.06 C285.285004,127.390002 285.889997,127.882497 286.39,128.5375 C286.890002,129.192503 287.274999,130.002495 287.545,130.9675 C287.815001,131.932505 287.95,133.044994 287.95,134.305 C287.95,135.425006 287.800002,136.467495 287.5,137.4325 C287.199998,138.397505 286.767503,139.232496 286.2025,139.9375 C285.637497,140.642504 284.947504,141.197498 284.1325,141.6025 C283.317496,142.007502 282.400005,142.21 281.38,142.21 C280.399995,142.21 279.567503,142.020002 278.8825,141.64 C278.197497,141.259998 277.600003,140.730003 277.09,140.05 L276.955,141.43 C276.875,141.810002 276.645002,142 276.265,142 L274.54,142 Z M281.32,128.695 C280.449996,128.695 279.687503,128.894998 279.0325,129.295 C278.377497,129.695002 277.775003,130.259996 277.225,130.99 L277.225,138.34 C277.705002,139.000003 278.237497,139.464999 278.8225,139.735 C279.407503,140.005001 280.059996,140.14 280.78,140.14 C282.200007,140.14 283.289996,139.635005 284.05,138.625 C284.810004,137.614995 285.19,136.175009 285.19,134.305 C285.19,133.314995 285.102501,132.465004 284.9275,131.755 C284.752499,131.044996 284.500002,130.462502 284.17,130.0075 C283.839998,129.552498 283.435002,129.220001 282.955,129.01 C282.474998,128.799999 281.930003,128.695 281.32,128.695 Z M297.37,126.565 C298.480006,126.565 299.482496,126.749998 300.3775,127.12 C301.272504,127.490002 302.032497,128.014997 302.6575,128.695 C303.282503,129.375003 303.762498,130.197495 304.0975,131.1625 C304.432502,132.127505 304.6,133.204994 304.6,134.395 C304.6,135.595006 304.432502,136.674995 304.0975,137.635 C303.762498,138.595005 303.282503,139.414997 302.6575,140.095 C302.032497,140.775003 301.272504,141.297498 300.3775,141.6625 C299.482496,142.027502 298.480006,142.21 297.37,142.21 C296.259994,142.21 295.257504,142.027502 294.3625,141.6625 C293.467496,141.297498 292.705003,140.775003 292.075,140.095 C291.444997,139.414997 290.960002,138.595005 290.62,137.635 C290.279998,136.674995 290.11,135.595006 290.11,134.395 C290.11,133.204994 290.279998,132.127505 290.62,131.1625 C290.960002,130.197495 291.444997,129.375003 292.075,128.695 C292.705003,128.014997 293.467496,127.490002 294.3625,127.12 C295.257504,126.749998 296.259994,126.565 297.37,126.565 Z M297.37,140.125 C298.870008,140.125 299.989996,139.622505 300.73,138.6175 C301.470004,137.612495 301.84,136.210009 301.84,134.41 C301.84,132.599991 301.470004,131.190005 300.73,130.18 C299.989996,129.169995 298.870008,128.665 297.37,128.665 C296.609996,128.665 295.950003,128.794999 295.39,129.055 C294.829997,129.315001 294.362502,129.689998 293.9875,130.18 C293.612498,130.670002 293.332501,131.272496 293.1475,131.9875 C292.962499,132.702504 292.87,133.509996 292.87,134.41 C292.87,135.310004 292.962499,136.114996 293.1475,136.825 C293.332501,137.535004 293.612498,138.132498 293.9875,138.6175 C294.362502,139.102502 294.829997,139.474999 295.39,139.735 C295.950003,139.995001 296.609996,140.125 297.37,140.125 Z M314.05,126.565 C315.160006,126.565 316.162496,126.749998 317.0575,127.12 C317.952504,127.490002 318.712497,128.014997 319.3375,128.695 C319.962503,129.375003 320.442498,130.197495 320.7775,131.1625 C321.112502,132.127505 321.28,133.204994 321.28,134.395 C321.28,135.595006 321.112502,136.674995 320.7775,137.635 C320.442498,138.595005 319.962503,139.414997 319.3375,140.095 C318.712497,140.775003 317.952504,141.297498 317.0575,141.6625 C316.162496,142.027502 315.160006,142.21 314.05,142.21 C312.939994,142.21 311.937504,142.027502 311.0425,141.6625 C310.147496,141.297498 309.385003,140.775003 308.755,140.095 C308.124997,139.414997 307.640002,138.595005 307.3,137.635 C306.959998,136.674995 306.79,135.595006 306.79,134.395 C306.79,133.204994 306.959998,132.127505 307.3,131.1625 C307.640002,130.197495 308.124997,129.375003 308.755,128.695 C309.385003,128.014997 310.147496,127.490002 311.0425,127.12 C311.937504,126.749998 312.939994,126.565 314.05,126.565 Z M314.05,140.125 C315.550007,140.125 316.669996,139.622505 317.41,138.6175 C318.150004,137.612495 318.52,136.210009 318.52,134.41 C318.52,132.599991 318.150004,131.190005 317.41,130.18 C316.669996,129.169995 315.550007,128.665 314.05,128.665 C313.289996,128.665 312.630003,128.794999 312.07,129.055 C311.509997,129.315001 311.042502,129.689998 310.6675,130.18 C310.292498,130.670002 310.012501,131.272496 309.8275,131.9875 C309.642499,132.702504 309.55,133.509996 309.55,134.41 C309.55,135.310004 309.642499,136.114996 309.8275,136.825 C310.012501,137.535004 310.292498,138.132498 310.6675,138.6175 C311.042502,139.102502 311.509997,139.474999 312.07,139.735 C312.630003,139.995001 313.289996,140.125 314.05,140.125 Z M327.355,119.905 L327.355,132.91 L328.045,132.91 C328.245001,132.91 328.409999,132.8825 328.54,132.8275 C328.670001,132.7725 328.814999,132.660001 328.975,132.49 L333.775,127.345 C333.925001,127.184999 334.074999,127.055001 334.225,126.955 C334.375001,126.855 334.574999,126.805 334.825,126.805 L337.255,126.805 L331.66,132.76 C331.519999,132.930001 331.382501,133.079999 331.2475,133.21 C331.112499,133.340001 330.960001,133.454999 330.79,133.555 C330.970001,133.675001 331.132499,133.812499 331.2775,133.9675 C331.422501,134.122501 331.559999,134.299999 331.69,134.5 L337.63,142 L335.23,142 C335.009999,142 334.822501,141.9575 334.6675,141.8725 C334.512499,141.7875 334.365001,141.655001 334.225,141.475 L329.23,135.25 C329.079999,135.039999 328.930001,134.9025 328.78,134.8375 C328.629999,134.7725 328.405002,134.74 328.105,134.74 L327.355,134.74 L327.355,142 L324.67,142 L324.67,119.905 L327.355,119.905 Z" id="Youll-learn-absolut" fill="#FFFFFF"></path>
    </g>
</svg>